<svg xmlns="http://www.w3.org/2000/svg" viewBox="0 0 37.17 37.73"><defs><style>.cls-1{fill:#444;}</style></defs><g id="Layer_1" data-name="Layer 1"><path class="cls-1" d="M8.92,30.13A1.65,1.65,0,0,1,8.35,30a1.53,1.53,0,0,1-1-1.42l0-17.2a3.7,3.7,0,0,1,3.7-3.69H26.85a3.69,3.69,0,0,1,3.69,3.69V21.78a3.69,3.69,0,0,1-3.69,3.69H14.25a.68.68,0,0,0-.48.21l-3.74,4A1.55,1.55,0,0,1,8.92,30.13ZM11.11,9.21a2.2,2.2,0,0,0-2.2,2.19l0,17.2,3.79-4A2.18,2.18,0,0,1,14.25,24h12.6A2.19,2.19,0,0,0,29,21.78V11.4a2.19,2.19,0,0,0-2.19-2.19Z"/><path class="cls-1" d="M24.79,15.44H13.29a.75.75,0,0,1,0-1.5h11.5a.75.75,0,0,1,0,1.5Z"/><path class="cls-1" d="M21.12,19.52H13.29a.75.75,0,0,1,0-1.5h7.83a.75.75,0,0,1,0,1.5Z"/></g></svg>