<svg xmlns="http://www.w3.org/2000/svg" viewBox="0 0 37.17 37.73"><defs><style>.cls-1{fill:#FF2261;}</style></defs><g id="Layer_1" data-name="Layer 1"><path class="cls-1" d="M22,28H10.6a2.79,2.79,0,0,1-2.79-2.78V8.92A2.79,2.79,0,0,1,10.6,6.13H22A2.79,2.79,0,0,1,24.8,8.92V25.23A2.79,2.79,0,0,1,22,28ZM10.6,7.63A1.29,1.29,0,0,0,9.31,8.92V25.23a1.28,1.28,0,0,0,1.29,1.28H22a1.28,1.28,0,0,0,1.29-1.28V8.92A1.29,1.29,0,0,0,22,7.63Z"/><path class="cls-1" d="M26.9,32.37H15.49a2.8,2.8,0,0,1-2.31-1.22.75.75,0,1,1,1.24-.85,1.28,1.28,0,0,0,1.07.57H26.9a1.29,1.29,0,0,0,1.29-1.28V13.28a1.28,1.28,0,0,0-.57-1.07.75.75,0,0,1-.2-1,.74.74,0,0,1,1-.2,2.77,2.77,0,0,1,1.23,2.31V29.59A2.79,2.79,0,0,1,26.9,32.37Z"/><path class="cls-1" d="M16.3,18.6A3.58,3.58,0,1,1,19.88,15,3.59,3.59,0,0,1,16.3,18.6Zm0-5.66A2.08,2.08,0,1,0,18.38,15,2.08,2.08,0,0,0,16.3,12.94Z"/><path class="cls-1" d="M18.58,22H14a.75.75,0,0,1,0-1.5h4.62a.75.75,0,0,1,0,1.5Z"/></g></svg>