<svg id="Layer_1" data-name="Layer 1" xmlns="http://www.w3.org/2000/svg" xmlns:xlink="http://www.w3.org/1999/xlink" viewBox="0 0 629.33 775.92"><defs><style>.cls-1{fill:url(#linear-gradient);}</style><linearGradient id="linear-gradient" x1="128.47" y1="616.24" x2="628.26" y2="116.45" gradientTransform="translate(-78.08 8.82) rotate(-1.54)" gradientUnits="userSpaceOnUse"><stop offset="0" stop-color="#ed327d"/><stop offset="0.25" stop-color="#ee3b74"/><stop offset="0.66" stop-color="#f0545a"/><stop offset="1" stop-color="#f26d40"/></linearGradient></defs><path class="cls-1" d="M626.41,282.64C609,110.36,455.19-15.14,283,2.33S-14.86,173.55,2.58,345.78A312.11,312.11,0,0,0,90.39,533.37a64.54,64.54,0,0,1,5.17,5.16,62,62,0,0,1,15.15,34.68c.05.51,0,1,.08,1.53,0,2.69,0,5.33.08,8,.13,4.88.39,9.79.88,14.7,11.07,109.33,108.72,189,218.1,178,94-9.49,166-83,177.37-173a198.32,198.32,0,0,0,1.48-31.34,62.34,62.34,0,0,1,9.71-18.8q8.52-7.28,16.51-15.21C599.9,472.7,636.32,380.69,626.41,282.64Zm-291,363.65a37.09,37.09,0,0,1-17.57,5A36.62,36.62,0,0,1,299,646.65a45.14,45.14,0,1,1,36.41-.36ZM498.82,296.23c2.68,100-79.54,187.61-179.53,191.54H319c-48.81.7-95.51-17.88-131.54-52.34s-56.66-80.47-58-129.29l-1.61-60.31c-.63-23.5,20.73-46.34,43.91-47,24-.65,46.34,20.61,47,44.52l1.62,60.31c1.39,51.76,44.59,93.44,96.36,93.17,51.66-2.5,92.6-46.44,91.21-98.2l-1.61-60.31c-.63-23.5,20.67-46.34,43.86-47,24-.65,46.38,20.61,47,44.52Z"/></svg>