<svg xmlns="http://www.w3.org/2000/svg" viewBox="0 0 37.17 37.73"><defs><style>.cls-1{fill:#444;}</style></defs><g id="Layer_1" data-name="Layer 1"><path class="cls-1" d="M22.57,30.42h-.14a1.88,1.88,0,0,1-1.31-.68,3.76,3.76,0,0,0-2.25-.88,4.85,4.85,0,0,0-2.73.44,2.66,2.66,0,0,0-.52.41,2.64,2.64,0,0,1-.39.3l-.11.07a1.73,1.73,0,0,1-.79.19,1.89,1.89,0,0,1-.81-.17L13.33,30l-.91-.54c-.4-.24-.82-.48-1.27-.76a1.73,1.73,0,0,1-.83-2,4.18,4.18,0,0,0-.53-3.08,4.09,4.09,0,0,0-2.23-2,1.84,1.84,0,0,1-1.31-1.81v-.92c0-.51,0-1,0-1.51a1.85,1.85,0,0,1,.94-1.61,2.4,2.4,0,0,1,.4-.17l.1,0c.28-.11.56-.21.77-.31l.18-.11a4.49,4.49,0,0,0,2-4.44,1.84,1.84,0,0,1,1-2C12.33,8.33,13,8,13.7,7.57A1.83,1.83,0,0,1,16,7.85a3.63,3.63,0,0,0,2.43,1,6.53,6.53,0,0,0,2.39-.41h0l.12-.05c.21-.13.45-.3.63-.44l.12-.08a1.86,1.86,0,0,1,.2-.14L22,7.69a1.93,1.93,0,0,1,1.93,0L26,9a1.83,1.83,0,0,1,.87,2.05,4.18,4.18,0,0,0,.51,3,4,4,0,0,0,2.32,2.07,1.79,1.79,0,0,1,1.23,1.78c0,.81,0,1.66,0,2.55a1.83,1.83,0,0,1-.2.81,1.67,1.67,0,0,1-1.29,1,3.35,3.35,0,0,0-.65.24,4.53,4.53,0,0,0-1.79,2,3.76,3.76,0,0,0-.44,2.43,1.94,1.94,0,0,1-1,2.23c-.38.23-.77.43-1,.55a9.21,9.21,0,0,1-1,.55A2.5,2.5,0,0,1,22.57,30.42Zm-.25-1.58a.47.47,0,0,0,.24.09,1.14,1.14,0,0,0,.34-.07,9.33,9.33,0,0,0,.85-.46l.12-.06c.21-.11.56-.28.91-.49a.46.46,0,0,0,.27-.59,5.3,5.3,0,0,1,.55-3.46,6.16,6.16,0,0,1,2.45-2.68,5.24,5.24,0,0,1,1-.37c.09,0,.25-.06.27-.11a.47.47,0,0,0,.07-.24c0-.9,0-1.73,0-2.52,0-.28-.13-.33-.21-.35h0A5.49,5.49,0,0,1,26,14.72a5.54,5.54,0,0,1-.64-4,.34.34,0,0,0-.18-.43L23.14,9a.46.46,0,0,0-.44,0l-.05,0a1.1,1.1,0,0,1-.25.17c-.14.11-.43.32-.67.48l-.28.13-.15.07a7.87,7.87,0,0,1-3,.5,5.17,5.17,0,0,1-3.41-1.46c-.1-.09-.21-.21-.51,0L12.31,10c-.11.05-.22.11-.18.45.39,2.23-.47,4.22-2.56,5.88l-.14.09-.09.05-.16.09a9.17,9.17,0,0,1-.92.38L8.15,17,8,17.1a.39.39,0,0,0-.16.36c0,.5,0,1,0,1.38v1c0,.2,0,.31.31.4a5.49,5.49,0,0,1,3,2.65,5.64,5.64,0,0,1,.7,4.16c0,.23,0,.3.14.38.46.29.87.53,1.26.76l.88.52h0a.58.58,0,0,0,.17.06.44.44,0,0,0,.19,0s.07,0,.11-.1A4.72,4.72,0,0,1,15.4,28,6.49,6.49,0,0,1,19,27.36a5.06,5.06,0,0,1,3.22,1.38l.08.1ZM18.6,24.78h-.3a5.87,5.87,0,0,1-4.77-2.89,5.94,5.94,0,0,1,2.22-8.28A5.88,5.88,0,0,1,19,12.86a6.78,6.78,0,0,1,1.37.26,5.91,5.91,0,0,1,3.59,3A6,6,0,0,1,21.53,24h0A6.35,6.35,0,0,1,18.6,24.78Zm2.56-1.4h0Zm-2.48-9a4.3,4.3,0,0,0-2.19.56,4.52,4.52,0,0,0-2.16,2.75,4.43,4.43,0,0,0,.5,3.47,4.35,4.35,0,0,0,3.52,2.15h.25a4.85,4.85,0,0,0,2.2-.56,4.47,4.47,0,0,0-.9-8.17,5.09,5.09,0,0,0-1-.19Z"/></g></svg>