<svg xmlns="http://www.w3.org/2000/svg" viewBox="0 0 37.17 37.73"><defs><style>.cls-1{fill:#444;}</style></defs><g id="Layer_1" data-name="Layer 1"><path class="cls-1" d="M7.31,27.82a1.49,1.49,0,0,1-.55-.1,1.45,1.45,0,0,1-.92-1.36l0-15.76A3.46,3.46,0,0,1,9.31,7.15H23.74a3.46,3.46,0,0,1,3.45,3.45v9.51a3.46,3.46,0,0,1-3.45,3.45H12.19a.52.52,0,0,0-.39.17L8.36,27.36A1.43,1.43,0,0,1,7.31,27.82Zm2-19.17A2,2,0,0,0,7.36,10.6l0,15.76,3.37-3.66a2,2,0,0,1,1.48-.64H23.74a2,2,0,0,0,2-1.95V10.6a2,2,0,0,0-2-1.95Z"/><path class="cls-1" d="M31.14,30.25a1.23,1.23,0,0,1-.89-.38L27.92,27.4l-7.91,0a.75.75,0,0,1,0-1.5h7.82a1.63,1.63,0,0,1,1.18.51l1.86,2v-10a1.08,1.08,0,0,0-.66-1,.74.74,0,0,1-.39-1,.75.75,0,0,1,1-.4,2.57,2.57,0,0,1,1.57,2.37V29a1.21,1.21,0,0,1-.77,1.14A1.25,1.25,0,0,1,31.14,30.25Z"/></g></svg>