<svg xmlns="http://www.w3.org/2000/svg" viewBox="0 0 37.17 37.73"><defs><style>.cls-1{fill:#FF2261;}</style></defs><g id="Layer_1" data-name="Layer 1"><path class="cls-1" d="M14.79,17.52a5.85,5.85,0,1,1,5.85-5.85A5.86,5.86,0,0,1,14.79,17.52Zm0-10.2a4.35,4.35,0,1,0,4.35,4.35A4.35,4.35,0,0,0,14.79,7.32Z"/><path class="cls-1" d="M25.15,29.86a.76.76,0,0,1-.75-.75V27A4.43,4.43,0,0,0,20,22.6H9.73A4.44,4.44,0,0,0,5.3,27v2.08a.75.75,0,0,1-1.5,0V27A5.94,5.94,0,0,1,9.73,21.1H20A5.93,5.93,0,0,1,25.9,27v2.08A.75.75,0,0,1,25.15,29.86Z"/><path class="cls-1" d="M32.75,29.86a.76.76,0,0,1-.75-.75V27a4.42,4.42,0,0,0-3.33-4.29.75.75,0,0,1-.55-.91.76.76,0,0,1,.91-.55A5.93,5.93,0,0,1,33.5,27v2.08A.76.76,0,0,1,32.75,29.86Z"/><path class="cls-1" d="M23.86,17.1a.75.75,0,0,1-.13-1.49,4,4,0,0,0,.11-7.78A.74.74,0,0,1,23.26,7a.75.75,0,0,1,.88-.59A5.46,5.46,0,0,1,24,17.08Z"/></g></svg>