<svg id="Layer_1" data-name="Layer 1" xmlns="http://www.w3.org/2000/svg" viewBox="0 0 88.97 110.37"><defs><style>.cls-1{fill:#fff;}</style></defs><path class="cls-1" d="M88.71,41.4A44.35,44.35,0,1,0,12,74.82c.25.24.48.49.71.75a8.79,8.79,0,0,1,2,5v.22c0,.38,0,.75,0,1.13,0,.69,0,1.39.07,2.09A28.15,28.15,0,0,0,71,81.74a8.83,8.83,0,0,1,1.45-2.62c.82-.67,1.62-1.36,2.39-2.09A44.26,44.26,0,0,0,88.71,41.4ZM46.18,91.72a5.28,5.28,0,0,1-2.5.64A5.16,5.16,0,0,1,41,91.63a6.38,6.38,0,1,1,5.15.09ZM70.62,42.84a26.84,26.84,0,0,1-26.11,26.4h0a26.66,26.66,0,0,1-26.11-26.4V34.3a6.78,6.78,0,0,1,6.39-6.47,6.74,6.74,0,0,1,6.48,6.47v8.54A13.62,13.62,0,0,0,44.49,56.38,13.63,13.63,0,0,0,57.76,42.84V34.3a6.43,6.43,0,1,1,12.86,0Z"/></svg>