<svg id="Layer_1" data-name="Layer 1" xmlns="http://www.w3.org/2000/svg" viewBox="0 0 492.45 81.93"><defs><style>.cls-1{opacity:0.95;}.cls-2{fill:#fff;}</style></defs><g class="cls-1"><path class="cls-2" d="M187.89,25.73l-.35-.94-.07-.11A25.07,25.07,0,0,0,166.8,12.54l-.56,0h0A24.39,24.39,0,0,0,152.81,17a6,6,0,0,0-5.43-4.15,5.86,5.86,0,0,0-5.57,5.56V58.28a2.46,2.46,0,0,0,.2,1v2.39a5.62,5.62,0,0,0,11.23,0V37.32a13.2,13.2,0,0,1,23.6-8.5l.5.74a6,6,0,0,0,5.42,3.5h0a5.11,5.11,0,0,0,1.66-.26,5.64,5.64,0,0,0,3.1-2.86A5.58,5.58,0,0,0,187.89,25.73Z"/><path class="cls-2" d="M403.59,56.21a5.63,5.63,0,1,0,5.62,5.63A5.64,5.64,0,0,0,403.59,56.21Z"/><path class="cls-2" d="M46.16,20A24.56,24.56,0,0,0,28.8,12.79H6.39A5.86,5.86,0,0,0,.82,18.36V74.84A5.88,5.88,0,0,0,6.4,80.43a5.92,5.92,0,0,0,5.65-5.59v-13H28.8A25.09,25.09,0,0,0,53.59,37.59V37h0A24.63,24.63,0,0,0,46.16,20ZM28.8,50.59H12.05V24H28.8a13.29,13.29,0,1,1,0,26.57Z"/><path class="cls-2" d="M267.41,12.54l-.56,0h0a25.05,25.05,0,0,0-24.23,24.79V61.64a5.61,5.61,0,0,0,11.22,0V37.32a13.28,13.28,0,1,1,26.56,0V61.64a5.91,5.91,0,0,0,5.65,5.56,5.79,5.79,0,0,0,5.59-5.56V37.32a25,25,0,0,0-24.24-24.78Z"/><path class="cls-2" d="M491.38,25.73l-.36-.94-.06-.11a25.11,25.11,0,0,0-20.67-12.14l-.57,0h0A24.38,24.38,0,0,0,456.3,17a6,6,0,0,0-5.43-4.15,5.86,5.86,0,0,0-5.57,5.56V58.28a2.43,2.43,0,0,0,.19,1v2.39a5.62,5.62,0,0,0,11.23,0V37.32a13.2,13.2,0,0,1,23.6-8.5l.51.74a6,6,0,0,0,5.42,3.5h0a5,5,0,0,0,1.65-.26,5.87,5.87,0,0,0,3.48-7.07Z"/><path class="cls-2" d="M221.49,13.12h-5.63v-6a5.62,5.62,0,0,0-11.23,0V56.57a11,11,0,0,0,3.13,7.59,10.77,10.77,0,0,0,7.51,3h.09a5.6,5.6,0,0,0,.5-11.18V24.35h5.63a5.92,5.92,0,0,0,5.58-5.66A5.87,5.87,0,0,0,221.49,13.12Z"/><path class="cls-2" d="M419.87,12.74a5.62,5.62,0,0,0-5.29,5.38v7.06a11,11,0,1,1-22,0V18.12a5.33,5.33,0,1,0-10.65,0v7.06A22.06,22.06,0,0,0,403.56,47h0a22.22,22.22,0,0,0,21.63-21.86V18.12A5.58,5.58,0,0,0,419.87,12.74Z"/><path class="cls-2" d="M121.11,34.93A21.56,21.56,0,0,0,99.57,13.39H88.14a5,5,0,1,0,0,10H99.57a11.64,11.64,0,0,1,10.7,7.19,18.14,18.14,0,0,0-7.66-1.82H91A19,19,0,0,0,72.52,47.48v.33A19,19,0,0,0,90.81,66.56h11.92a19,19,0,0,0,18.44-18.75v-.32c0-.36,0-.67,0-1Zm-9.89,12.56v.32a8.82,8.82,0,0,1-8.81,8.8H91.29l-.41,0h-.52a8.79,8.79,0,0,1-7.88-8.76v-.33a8.81,8.81,0,0,1,8.81-8.8h11.12l.41,0h.52a8.91,8.91,0,0,1,7.8,7.65v.28A4.32,4.32,0,0,0,111.22,47.49Z"/><path class="cls-2" d="M345.53,13.39H333.6a19,19,0,0,0-18.43,18.75v.33c0,.34,0,.66.05,1V45a21.58,21.58,0,0,0,21.55,21.54h11.43a5,5,0,1,0,0-10H336.78a11.63,11.63,0,0,1-10.71-7.18,18,18,0,0,0,7.67,1.81h11.64a19,19,0,0,0,18.44-18.75v-.32A19.06,19.06,0,0,0,345.53,13.39Zm-20.4,19.08h0v-.33a8.8,8.8,0,0,1,8.8-8.79h11.54l.26,0H346a8.79,8.79,0,0,1,7.87,8.76v.32a8.82,8.82,0,0,1-8.8,8.81H333.93l-.4,0-.27,0H333a8.88,8.88,0,0,1-7.8-7.63v-.3A4.36,4.36,0,0,0,325.13,32.47Z"/></g></svg>